# xmcd
#
# Track frame offsets:
#	150
#	16771
#	32938
#	45776
#	59074
#	72152
#	87111
#	102253
#	115087
#	130529
#	143946
#	158242
#	172129
#	188447
#	202084
#	217841
#	232855
#	248292
#
# Disc length: 3519 seconds
#
# Revision: 0
# Processed by: cddbd v1.5.2PL0 Copyright (c) Steve Scherf et al.
# Submitted via: EZCDAudioConverter 7.1.0.1
#
DISCID=e50dbd12
DTITLE=Nu Country Traxx Volume 238 US
DYEAR=2018
DGENRE=country
TTITLE0=Maren Morris - GIRL
TTITLE1=Travis Denning - After A Few
TTITLE2=Dan and Shay - All To Myself
TTITLE3=Chris Young - Raised on Country
TTITLE4=Jimmie Allen - Make Me Want To
TTITLE5=Aaron Watson - Kiss That Girl Goodbye
TTITLE6=Lockeland - Til The Cows Come Home
TTITLE7=Smithfield - Our World
TTITLE8=Corinne Cook - One Box of Tissues
TTITLE9=Shane Owens - Love To Try Them On
TTITLE10=Mags - Run
TTITLE11=Seth Cook - Sleep Is Not An Option
TTITLE12=AJ McLean - Night Visions
TTITLE13=Logan Mize - Better Off Gone
TTITLE14=Alexis Ebert - Ride Or Die
TTITLE15=Dave McElroy - Bulletproof
TTITLE16=Ryan Keown - While I Was Away
TTITLE17=Black Mountain Whiskey Rebellion - Black Mountain Whiskey Rebellion
EXTD=
EXTT0=
EXTT1=
EXTT2=
EXTT3=
EXTT4=
EXTT5=
EXTT6=
EXTT7=
EXTT8=
EXTT9=
EXTT10=
EXTT11=
EXTT12=
EXTT13=
EXTT14=
EXTT15=
EXTT16=
EXTT17=
PLAYORDER=
